<svg version="1.1" id="Layer_1" xmlns="http://www.w3.org/2000/svg" xmlns:xlink="http://www.w3.org/1999/xlink" x="0px" y="0px"
	 width="100%" viewBox="0 0 240 240" enable-background="new 0 0 240 240" xml:space="preserve">
<path fill="#FF7001" opacity="1.000000" stroke="none" 
	d="
M64.000000,241.000000 
	C43.013699,241.000000 22.027397,241.000000 1.020548,241.000000 
	C1.020548,161.065887 1.020548,81.131767 1.020548,1.098825 
	C80.881821,1.098825 160.763809,1.098825 241.000000,1.098825 
	C241.000000,43.353569 241.000000,85.708130 240.663147,128.463135 
	C223.206223,104.397408 206.086136,79.931252 188.886978,55.352089 
	C164.822556,72.190369 141.282440,88.661781 117.696571,105.165222 
	C115.040298,101.478531 112.558189,98.033562 109.980057,94.455330 
	C76.656197,117.791740 43.755177,140.832031 10.663334,164.005966 
	C20.122860,177.519485 29.313223,190.544632 38.391529,203.647415 
	C46.988819,216.055923 55.468559,228.545868 64.000000,241.000000 
z"/>
<path fill="#FFFEFE" opacity="1.000000" stroke="none" 
	d="
M64.468658,241.000000 
	C55.468559,228.545868 46.988819,216.055923 38.391529,203.647415 
	C29.313223,190.544632 20.122860,177.519485 10.663334,164.005966 
	C43.755177,140.832031 76.656197,117.791740 109.980057,94.455330 
	C112.558189,98.033562 115.040298,101.478531 117.696571,105.165222 
	C141.282440,88.661781 164.822556,72.190369 188.886978,55.352089 
	C206.086136,79.931252 223.206223,104.397408 240.663147,128.931793 
	C241.000000,156.354233 241.000000,183.708450 240.727859,211.336884 
	C220.516312,183.207382 200.576889,154.803696 180.414108,126.081818 
	C170.080139,133.347885 160.346771,140.191666 150.396210,147.188156 
	C172.525269,178.832184 194.262634,209.916092 216.000000,241.000000 
	C198.645767,241.000000 181.291550,241.000000 163.425491,240.657715 
	C142.844940,211.672272 122.776199,183.029129 102.589233,154.217239 
	C92.354507,161.397064 82.592300,168.245407 72.623192,175.238892 
	C82.267952,189.018417 91.739937,202.441864 101.089851,215.949799 
	C106.823265,224.232925 112.369637,232.645538 118.000000,241.000000 
	C100.312439,241.000000 82.624878,241.000000 64.468658,241.000000 
z"/>
<path fill="#9CA09F" opacity="1.000000" stroke="none" 
	d="
M216.468674,241.000000 
	C194.262634,209.916092 172.525269,178.832184 150.396210,147.188156 
	C160.346771,140.191666 170.080139,133.347885 180.414108,126.081818 
	C200.576889,154.803696 220.516312,183.207382 240.727859,211.805542 
	C241.000000,221.587646 241.000000,231.175293 241.000000,241.000000 
	C232.980667,241.000000 224.959015,241.000000 216.468674,241.000000 
z"/>
<path fill="#FF7002" opacity="1.000000" stroke="none" 
	d="
M118.468658,241.000000 
	C112.369637,232.645538 106.823265,224.232925 101.089851,215.949799 
	C91.739937,202.441864 82.267952,189.018417 72.623192,175.238892 
	C82.592300,168.245407 92.354507,161.397064 102.589233,154.217239 
	C122.776199,183.029129 142.844940,211.672272 162.956833,240.657715 
	C148.312439,241.000000 133.624878,241.000000 118.468658,241.000000 
z"/>
</svg>